#!OML:ASF H:\Martial Arts Walks\Project 1\Capture day 1\Session 1\male.ASF
:FULLY-SPECIFIED
:DEGREES
276
root -0.871999 11.4771 11.3125 9.89722 1.97309 -1.97882
lowerback 19.3564 1.64332 -2.31138
upperback -3.44829 1.78704 1.10378
thorax -15.0054 1.08267 2.00536
lowerneck -9.17625 -3.04349 -5.35253
upperneck 7.39436 -3.85747 5.05441
head 3.90584 -1.79922 2.17711
rclavicle -3.28616e-015 1.1281e-014
rhumerus 39.9845 -2.96626 -62.813
rradius 94.1187
rwrist 20.5745
rhand 1.30492 -13.9807
rfingers 7.12502
rthumb 26.8397 -42.0958
lclavicle -3.28616e-015 1.1281e-014
lhumerus 42.5328 -5.06452 86.0048
lradius 87.5175
lwrist -35.5663
lhand -11.0975 1.98733
lfingers 7.12502
lthumb 14.9266 31.4295
rfemur -74.071 -5.37704 21.8744
rtibia 108.355
rfoot -33.2938 -18.2427
rtoes -13.6834
lfemur -75.0311 11.7277 -17.9481
ltibia 107.473
lfoot -31.511 16.2018
ltoes -13.5217
277
root -0.871773 11.4772 11.3149 9.89889 1.97742 -1.97222
lowerback 19.3557 1.64214 -2.3183
upperback -3.44585 1.7838 1.10422
thorax -15.0022 1.08178 2.01087
lowerneck -9.16104 -3.04578 -5.36459
upperneck 7.38276 -3.86034 5.06512
head 3.90041 -1.80067 2.18238
rclavicle 2.31398e-014 1.04859e-014
rhumerus 39.9703 -2.95636 -62.8065
rradius 94.1144
rwrist 20.5742
rhand 1.32008 -13.9839
rfingers 7.12502
rthumb 26.8542 -42.0968
lclavicle 2.31398e-014 1.04859e-014
lhumerus 42.5282 -5.06065 85.9976
lradius 87.5233
lwrist -35.5641
lhand -11.0931 1.97258
lfingers 7.12502
lthumb 14.9308 31.4144
rfemur -74.0524 -5.38516 21.869
rtibia 108.362
rfoot -33.3041 -18.28
rtoes -13.7547
lfemur -75.0174 11.7164 -17.9537
ltibia 107.472
lfoot -31.5169 16.227
ltoes -13.5458
278
root -0.871617 11.4774 11.317 9.90482 1.98423 -1.96549
lowerback 19.3536 1.63954 -2.32506
upperback -3.44591 1.77887 1.1056
thorax -15.001 1.08022 2.01793
lowerneck -9.14625 -3.04675 -5.37658
upperneck 7.37284 -3.86099 5.07071
head 3.89534 -1.80128 2.1862
rclavicle 1.96424e-014 6.23687e-015
rhumerus 39.9563 -2.94505 -62.8006
rradius 94.1085
rwrist 20.5834
rhand 1.32944 -13.984
rfingers 7.12502
rthumb 26.8631 -42.0955
lclavicle 1.96424e-014 6.23687e-015
lhumerus 42.5233 -5.05415 85.9871
lradius 87.5325
lwrist -35.5633
lhand -11.0868 1.96347
lfingers 7.12502
lthumb 14.9369 31.4049
rfemur -74.0419 -5.39382 21.8626
rtibia 108.369
rfoot -33.3141 -18.305
rtoes -13.8002
lfemur -75.0119 11.7029 -17.9604
ltibia 107.473
lfoot -31.5204 16.2526
ltoes -13.5907
279
root -0.871514 11.4777 11.319 9.91401 1.99423 -1.96143
lowerback 19.3508 1.63612 -2.32787
upperback -3.44829 1.77402 1.10811
thorax -15.0021 1.07848 2.02399
lowerneck -9.13094 -3.04785 -5.38545
upperneck 7.36481 -3.86163 5.06916
head 3.89055 -1.80216 2.18733
rclavicle -5.26158e-015 3.45388e-015
rhumerus 39.9403 -2.93554 -62.7958
rradius 94.103
rwrist 20.6002
rhand 1.34336 -13.9855
rfingers 7.12502
rthumb 26.8764 -42.095
lclavicle -5.26158e-015 3.45388e-015
lhumerus 42.5179 -5.04819 85.975
lradius 87.5424
lwrist -35.5685
lhand -11.0887 1.95888
lfingers 7.12502
lthumb 14.9351 31.4004
rfemur -74.0377 -5.40151 21.8567
rtibia 108.372
rfoot -33.3294 -18.3069
rtoes -13.7951
lfemur -75.0121 11.6882 -17.9647
ltibia 107.473
lfoot -31.5248 16.2727
ltoes -13.6296
280
root -0.871394 11.4778 11.3209 9.92502 2.00462 -1.95764
lowerback 19.3486 1.63269 -2.32971
upperback -3.45218 1.76941 1.11073
thorax -15.0053 1.0768 2.02951
lowerneck -9.11541 -3.04738 -5.39194
upperneck 7.35791 -3.86022 5.06434
head 3.88585 -1.80212 2.1872
rclavicle 2.52457e-014 -8.34896e-015
rhumerus 39.9257 -2.92781 -62.7928
rradius 94.0974
rwrist 20.6192
rhand 1.35402 -13.9875
rfingers 7.12502
rthumb 26.8866 -42.0954
lclavicle 2.52457e-014 -8.34896e-015
lhumerus 42.5122 -5.0425 85.9613
lradius 87.5538
lwrist -35.575
lhand -11.0909 1.95899
lfingers 7.12502
lthumb 14.933 31.4007
rfemur -74.0382 -5.41008 21.8519
rtibia 108.376
rfoot -33.3409 -18.312
rtoes -13.7926
lfemur -75.0162 11.6744 -17.9705
ltibia 107.474
lfoot -31.5233 16.3
ltoes -13.6996
281
root -0.871213 11.478 11.3228 9.93687 2.01459 -1.95257
lowerback 19.3462 1.62983 -2.33256
upperback -3.45484 1.76527 1.11306
thorax -15.007 1.07538 2.03515
lowerneck -9.10635 -3.04575 -5.39502
upperneck 7.35223 -3.85719 5.05722
head 3.88238 -1.80122 2.18584
rclavicle 1.7698e-014 -7.70291e-015
rhumerus 39.9164 -2.92423 -62.7931
rradius 94.0921
rwrist 20.6396
rhand 1.36663 -13.9907
rfingers 7.12502
rthumb 26.8987 -42.0967
lclavicle 1.7698e-014 -7.70291e-015
lhumerus 42.5091 -5.0367 85.9483
lradius 87.5644
lwrist -35.5846
lhand -11.0993 1.96318
lfingers 7.12502
lthumb 14.9248 31.4055
rfemur -74.0405 -5.42 21.8466
rtibia 108.38
rfoot -33.3495 -18.3218
rtoes -13.8037
lfemur -75.0219 11.6602 -17.9781
ltibia 107.475
lfoot -31.5241 16.3202
ltoes -13.7346
